<svg height="512" viewBox="0 0 64 64" width="512" xmlns="http://www.w3.org/2000/svg"><g id="Flat"><g id="Color_copy" data-name="Color copy"><g><g><rect fill="#93999a" height="38" rx="4" width="58" x="3" y="23"/><path d="m34 51a19 19 0 0 1 -19-19v-9h-8a4 4 0 0 0 -4 4v30a4 4 0 0 0 4 4h50a4 4 0 0 0 4-4v-6z" fill="#656b76"/><path d="m11 27h42v30h-42z" fill="#aae1f9"/><path d="m34 51a19 19 0 0 1 -19-19v-5h-4v30h42v-6z" fill="#57b7eb"/><path d="m20 23a2 2 0 0 0 2 2h31a4 4 0 0 1 4 4v13a4 4 0 0 0 4 4v-19a4 4 0 0 0 -4-4z" fill="#d0d8da"/><circle cx="57" cy="42" fill="#57b7eb" r="1"/><g fill="#4891d3"><path d="m7 47a1 1 0 0 1 -1-1v-8a1 1 0 0 1 2 0v8a1 1 0 0 1 -1 1z"/><path d="m57 42v-1a1 1 0 0 0 0 2 .979.979 0 0 0 .133-.027 3.952 3.952 0 0 1 -.133-.973z"/></g></g><g><path d="m19 23h20a4 4 0 0 1 4 4v12a4 4 0 0 1 -4 4h-11l-8 8v-8h-1a4 4 0 0 1 -4-4v-12a4 4 0 0 1 4-4z" fill="#f9e109"/><path d="m39 23h-20v10a4 4 0 0 0 4 4h11l3.857 3h-12.857a8 8 0 0 1 -8-8v-8.445a3.982 3.982 0 0 0 -2 3.445v12a4 4 0 0 0 4 4h1v8l8-8h11a4 4 0 0 0 4-4v-12a4 4 0 0 0 -4-4z" fill="#fcbc04"/><g fill="#57b7eb"><path d="m35 40h-16a1 1 0 0 1 0-2h16a1 1 0 0 1 0 2z"/><path d="m30 36h-11a1 1 0 0 1 0-2h11a1 1 0 0 1 0 2z"/><path d="m21 32h-2a1 1 0 0 1 0-2h2a1 1 0 0 1 0 2z"/><path d="m21 28h-2a1 1 0 0 1 0-2h2a1 1 0 0 1 0 2z"/></g><path d="m18 39a1 1 0 0 0 1 1h6a7.959 7.959 0 0 1 -5.279-2h-.721a1 1 0 0 0 -1 1z" fill="#4891d3"/><path d="m31 35a1 1 0 0 0 -1-1h-10.859a3.974 3.974 0 0 0 1.239 2h9.62a1 1 0 0 0 1-1z" fill="#4891d3"/><path d="m22 31a1 1 0 0 0 -1-1h-2v2h2a1 1 0 0 0 1-1z" fill="#4891d3"/><path d="m22 27a1 1 0 0 0 -1-1h-2v2h2a1 1 0 0 0 1-1z" fill="#4891d3"/><path d="m45 15h-20a4 4 0 0 0 -4 4v12a4 4 0 0 0 4 4h11l8 8v-8h1a4 4 0 0 0 4-4v-12a4 4 0 0 0 -4-4z" fill="#f89c8d"/><path d="m35 30a9 9 0 0 1 -9-9v-6h-1a4 4 0 0 0 -4 4v12a4 4 0 0 0 4 4h11l8 8v-8h1a4 4 0 0 0 4-4v-1z" fill="#f8664f"/><path d="m44 28h-15l1-13h12z" fill="#f8664f"/><path d="m45 27h-14l1-14h12z" fill="#f9e109"/><path d="m44.74 24a10 10 0 0 1 -9.975-10.712l.021-.288h-2.786l-1 14h14l-.214-3z" fill="#fcbc04"/><circle cx="38" cy="21" fill="#aae1f9" r="2"/><path d="m38 23a1.989 1.989 0 0 0 1.389-.565 10.024 10.024 0 0 1 -2.872-2.765 1.991 1.991 0 0 0 1.483 3.33z" fill="#57b7eb"/><path d="m49 48h-10a1 1 0 0 1 0-2h10a1 1 0 0 1 0 2z" fill="#f9e109"/><path d="m49 52h-22a1 1 0 0 1 0-2h22a1 1 0 0 1 0 2z" fill="#f9e109"/><path d="m41 16a1 1 0 0 1 -1-1v-4a2 2 0 0 0 -4 0v4a1 1 0 0 1 -2 0v-4a4 4 0 0 1 8 0v4a1 1 0 0 1 -1 1z" fill="#f8664f"/><path d="m41 32h-16a1 1 0 0 1 0-2h16a1 1 0 0 1 0 2z" fill="#4891d3"/><path d="m28 20h-2a1 1 0 0 1 0-2h2a1 1 0 0 1 0 2z" fill="#57b7eb"/><path d="m28 24h-3a1 1 0 0 1 0-2h3a1 1 0 0 1 0 2z" fill="#57b7eb"/><path d="m27 28h-2a1 1 0 0 1 0-2h2a1 1 0 0 1 0 2z" fill="#4891d3"/><path d="m35 48h-4a1 1 0 0 1 0-2h4a1 1 0 0 1 0 2z" fill="#f9e109"/><path d="m25 19a1 1 0 0 0 1 1v-2a1 1 0 0 0 -1 1z" fill="#4891d3"/><path d="m24 23a1 1 0 0 0 1 1h1.523a8.921 8.921 0 0 1 -.464-2h-1.059a1 1 0 0 0 -1 1z" fill="#4891d3"/></g></g></g></g></svg>